<svg id="Camada_1" data-name="Camada 1" xmlns="http://www.w3.org/2000/svg" xmlns:xlink="http://www.w3.org/1999/xlink" viewBox="0 0 375 812"><defs><style>.cls-1{fill:#202024;}.cls-2{fill:#8257e5;}.cls-3{fill:none;}.cls-4{clip-path:url(#clip-path);}.cls-5{fill:url(#Gradiente_sem_nome);}.cls-6{fill:url(#Gradiente_sem_nome_2);}.cls-7{mask:url(#mask);}.cls-8{fill:url(#Gradiente_sem_nome_3);}.cls-9{opacity:0.4;}.cls-10{fill:url(#Gradiente_sem_nome_4);}.cls-11{fill:url(#Gradiente_sem_nome_5);}.cls-12{fill:url(#Gradiente_sem_nome_6);}.cls-13{fill:url(#Gradiente_sem_nome_7);}.cls-14{fill:url(#Gradiente_sem_nome_8);}.cls-15{fill:url(#Gradiente_sem_nome_9);}.cls-16{mask:url(#mask-2);}</style><clipPath id="clip-path"><rect class="cls-3" width="375" height="812"/></clipPath><radialGradient id="Gradiente_sem_nome" cx="-312.31" cy="905.96" r="1" gradientTransform="matrix(0, -300, -300, 0, 272066, -93594)" gradientUnits="userSpaceOnUse"><stop offset="0" stop-color="#ffc323"/><stop offset="1" stop-color="#121214" stop-opacity="0"/></radialGradient><radialGradient id="Gradiente_sem_nome_2" cx="-312.31" cy="905.96" r="1" gradientTransform="matrix(0, -300, -300, 0, 271886, -93594)" gradientUnits="userSpaceOnUse"><stop offset="0" stop-color="#ff3d6e"/><stop offset="1" stop-color="#121214" stop-opacity="0"/></radialGradient><mask id="mask" x="-0.04" y="-418.49" width="375.04" height="1230.49" maskUnits="userSpaceOnUse"><g id="mask0_61385:181" data-name="mask0 61385:181"><rect class="cls-1" width="375" height="812"/></g></mask><linearGradient id="Gradiente_sem_nome_3" x1="-0.85" y1="950.09" x2="503.21" y2="776.67" gradientTransform="matrix(1, 0, 0, -1, 0, 814)" gradientUnits="userSpaceOnUse"><stop offset="0" stop-color="#ff008e"/><stop offset="1" stop-color="#ffcd1e"/></linearGradient><linearGradient id="Gradiente_sem_nome_4" x1="139.83" y1="622.63" x2="46.94" y2="781.15" gradientTransform="matrix(1, 0, 0, -1, 0, 814)" gradientUnits="userSpaceOnUse"><stop offset="0" stop-color="#8257e5"/><stop offset="1" stop-color="#ff008e" stop-opacity="0"/></linearGradient><linearGradient id="Gradiente_sem_nome_5" x1="139.82" y1="730.04" x2="46.94" y2="888.55" xlink:href="#Gradiente_sem_nome_4"/><linearGradient id="Gradiente_sem_nome_6" x1="93.6" y1="917.21" x2="279.9" y2="804.79" gradientTransform="matrix(1, 0, 0, -1, 0, 814)" gradientUnits="userSpaceOnUse"><stop offset="0" stop-color="#ff008e" stop-opacity="0"/><stop offset="1" stop-color="#ffcd1e"/></linearGradient><linearGradient id="Gradiente_sem_nome_7" x1="376.52" y1="641.69" x2="190.23" y2="754.11" xlink:href="#Gradiente_sem_nome_6"/><linearGradient id="Gradiente_sem_nome_8" x1="237.01" y1="730.04" x2="329.9" y2="888.55" xlink:href="#Gradiente_sem_nome_4"/><linearGradient id="Gradiente_sem_nome_9" x1="143.72" y1="721.45" x2="236.61" y2="562.94" xlink:href="#Gradiente_sem_nome_4"/><mask id="mask-2" x="95.93" y="183.29" width="185.3" height="185.08" maskUnits="userSpaceOnUse"><g id="mask1_61385:181" data-name="mask1 61385:181"><path class="cls-2" d="M268,230v92l-80,46-80-46V230l80-46Z"/></g></mask></defs><g class="cls-4"><rect class="cls-1" width="375" height="812"/><circle class="cls-5" cx="278" cy="99" r="300"/><circle class="cls-6" cx="98" cy="99" r="300"/><g class="cls-7"><path class="cls-8" d="M375,168.1V-310.7L187.48-418.49,0-310.7V168.1L187.48,275.89Z"/><g class="cls-9"><path class="cls-10" d="M1.84,61.39V168.8l93.29,53.71,93.29-53.71V61.39L95.13,7.69Z"/><path class="cls-11" d="M1.84-46V61.39L95.13,115.1l93.29-53.71V-46L95.13-99.72Z"/><path class="cls-12" d="M281.71-99.7V7.71L188.42,61.42,95.13,7.71V-99.7l93.29-53.7Z"/><path class="cls-13" d="M188.42,168.8V61.39l93.29-53.7L375,61.39V168.8l-93.29,53.7Z"/><path class="cls-14" d="M375-46V61.39L281.71,115.1,188.42,61.39V-46l93.29-53.7Z"/><path class="cls-15" d="M281.71,222.53V115.12l-93.29-53.7-93.29,53.7V222.53l93.29,53.7Z"/></g></g><g class="cls-16"><ellipse class="cls-3" cx="188.58" cy="275.83" rx="92.65" ry="92.54"/></g></g></svg>